<svg xmlns="http://www.w3.org/2000/svg" xmlns:xlink="http://www.w3.org/1999/xlink" xmlns:lucid="lucid" width="1500" height="605.69"><g transform="translate(-40 40)" lucid:page-tab-id="UK7mzMD6Oc~e"><path d="M0 0h2506.2v1962.84H0z" fill="#fff"/><path d="M975.76 184.24c2.34-2.34 6.14-2.34 8.48 0l71.52 71.52c2.34 2.34 2.34 6.14 0 8.48l-71.52 71.52c-2.34 2.34-6.14 2.34-8.48 0l-71.52-71.52c-2.34-2.34-2.34-6.14 0-8.48z" stroke="#5e5e5e" stroke-width="3" fill="#fff"/><path d="M900 234.33c0-3.3 2.7-6 6-6h148c3.3 0 6 2.7 6 6v51.34c0 3.3-2.7 6-6 6H906c-3.3 0-6-2.7-6-6z" stroke="#000" stroke-opacity="0" stroke-width="3" fill="#fff" fill-opacity="0"/><use xlink:href="#a" transform="matrix(1,0,0,1,905,233.33333333333334) translate(43.000000000000014 19.375)"/><use xlink:href="#b" transform="matrix(1,0,0,1,905,233.33333333333334) translate(27.47222222222223 43.37499999999999)"/><path d="M330.45 205.8c.86-3.2 4.24-5.8 7.55-5.8h116c3.3 0 5.3 2.6 4.45 5.8l-28.9 108.4c-.86 3.2-4.24 5.8-7.55 5.8H306c-3.3 0-5.3-2.6-4.45-5.8z" stroke="#5e5e5e" stroke-width="3" fill="#fff"/><use xlink:href="#c" transform="matrix(1,0,0,1,305,205) translate(19.727222222222235 46.9375)"/><use xlink:href="#d" transform="matrix(1,0,0,1,305,205) translate(73.005 46.9375)"/><use xlink:href="#e" transform="matrix(1,0,0,1,305,205) translate(50.921666666666674 70.9375)"/><path d="M730.45 205.8c.86-3.2 4.24-5.8 7.55-5.8h116c3.3 0 5.3 2.6 4.45 5.8l-28.9 108.4c-.86 3.2-4.24 5.8-7.55 5.8H706c-3.3 0-5.3-2.6-4.45-5.8z" stroke="#5e5e5e" stroke-width="3" fill="#fff"/><use xlink:href="#f" transform="matrix(1,0,0,1,705,205) translate(29.36611111111112 36.625)"/><use xlink:href="#g" transform="matrix(1,0,0,1,705,205) translate(64.92166666666667 36.625)"/><use xlink:href="#h" transform="matrix(1,0,0,1,705,205) translate(19.53277777777779 60.625)"/><use xlink:href="#i" transform="matrix(1,0,0,1,705,205) translate(63.92166666666667 60.625)"/><use xlink:href="#j" transform="matrix(1,0,0,1,705,205) translate(82.81055555555555 60.625)"/><use xlink:href="#k" transform="matrix(1,0,0,1,705,205) translate(52.449444444444445 84.625)"/><path d="M228 220c17.67 0 32 17.9 32 40s-14.33 40-32 40h-96c-17.67 0-32-17.9-32-40s14.33-40 32-40z" stroke="#5e5e5e" stroke-width="3" fill="#fff"/><use xlink:href="#l" transform="matrix(1,0,0,1,105,225) translate(38.495 40.0625)"/><use xlink:href="#m" transform="matrix(1,0,0,1,105,225) translate(110.505 40.0625)"/><path d="M262.5 260h33.45" stroke="#5e5e5e" stroke-width="2" fill="none"/><path d="M262.53 261h-1.1l.07-.98-.03-1.02h1.06z" fill="#5e5e5e"/><path d="M311.2 260l-14.25 4.64v-9.28z" stroke="#5e5e5e" stroke-width="2" fill="#5e5e5e"/><path d="M446.55 260h35.96" stroke="#5e5e5e" stroke-width="2" fill="none"/><path d="M446.58 261h-1.3l.54-2h.76z" fill="#5e5e5e"/><path d="M497.78 260l-14.27 4.64v-9.28z" stroke="#5e5e5e" stroke-width="2" fill="#5e5e5e"/><path d="M846.55 260h35.96" stroke="#5e5e5e" stroke-width="2" fill="none"/><path d="M846.58 261h-1.3l.54-2h.76z" fill="#5e5e5e"/><path d="M897.78 260l-14.27 4.64v-9.28z" stroke="#5e5e5e" stroke-width="2" fill="#5e5e5e"/><path d="M660 260h35.95" stroke="#5e5e5e" stroke-width="2" fill="none"/><path d="M660 261h-1.15l.18-1.33-.15-.67H660z" fill="#5e5e5e"/><path d="M711.2 260l-14.25 4.64v-9.28z" stroke="#5e5e5e" stroke-width="2" fill="#5e5e5e"/><path d="M1092.22 261H1060v-2h32.22zm50.3 0h-14.74v-2h14.73z" fill="#5e5e5e"/><path d="M1060 261h-1.15l.18-1.33-.15-.67h1.13zM1157.78 260l-14.27 4.64v-9.28z" fill="#5e5e5e"/><path d="M1161 260l-18.5 6v-12zm-16.5 3.26l10.04-3.26-10.03-3.26z" fill="#5e5e5e"/><use xlink:href="#n" transform="matrix(1,0,0,1,1092.2222222222222,249.33333333333334) translate(0 14.222222222222223)"/><path d="M1050.45 345.8c.86-3.2 4.24-5.8 7.55-5.8h116c3.3 0 5.3 2.6 4.45 5.8l-28.9 108.4c-.86 3.2-4.24 5.8-7.55 5.8h-116c-3.3 0-5.3-2.6-4.45-5.8z" stroke="#5e5e5e" stroke-width="3" fill="#fff"/><use xlink:href="#o" transform="matrix(1,0,0,1,1025,345) translate(22.143888888888902 60.6875)"/><use xlink:href="#i" transform="matrix(1,0,0,1,1025,345) translate(68.81055555555557 60.6875)"/><use xlink:href="#p" transform="matrix(1,0,0,1,1025,345) translate(87.69944444444444 60.6875)"/><path d="M981 393.87l.7 2.64 1.8 1.8 2.63.7h29.82v2h-30.08l-3.42-.92-2.53-2.53-.92-3.42v-11.48h2zm0-32.55h-2V340h2zM980.33 339.03l.67-.15V340h-2v-1.15zM1031.2 400l-14.25 4.64v-9.28z" fill="#5e5e5e"/><path d="M1034.45 400l-18.5 6v-12zm-16.5 3.26l10.03-3.26-10.03-3.26z" fill="#5e5e5e"/><use xlink:href="#q" transform="matrix(1,0,0,1,966.6913580246913,361.31662521347187) translate(0 14.222222222222223)"/><path d="M1166.55 400H1234c3.3 0 6-2.7 6-6v-36.5" stroke="#5e5e5e" stroke-width="2" fill="none"/><path d="M1166.58 401h-1.3l.54-2h.76z" fill="#5e5e5e"/><path d="M1240 342.22l4.64 14.27h-9.28z" stroke="#5e5e5e" stroke-width="2" fill="#5e5e5e"/><path d="M1235.76 184.24c2.34-2.34 6.14-2.34 8.48 0l71.52 71.52c2.34 2.34 2.34 6.14 0 8.48l-71.52 71.52c-2.34 2.34-6.14 2.34-8.48 0l-71.52-71.52c-2.34-2.34-2.34-6.14 0-8.48z" stroke="#5e5e5e" stroke-width="3" fill="#fff"/><path d="M1160 234.33c0-3.3 2.7-6 6-6h148c3.3 0 6 2.7 6 6v51.34c0 3.3-2.7 6-6 6h-148c-3.3 0-6-2.7-6-6z" stroke="#000" stroke-opacity="0" stroke-width="3" fill="#fff" fill-opacity="0"/><use xlink:href="#r" transform="matrix(1,0,0,1,1165,233.33333333333334) translate(49.08333333333334 19.375)"/><use xlink:href="#s" transform="matrix(1,0,0,1,1165,233.33333333333334) translate(24.583333333333343 43.37499999999999)"/><path d="M575.76 184.24c2.34-2.34 6.14-2.34 8.48 0l71.52 71.52c2.34 2.34 2.34 6.14 0 8.48l-71.52 71.52c-2.34 2.34-6.14 2.34-8.48 0l-71.52-71.52c-2.34-2.34-2.34-6.14 0-8.48z" stroke="#5e5e5e" stroke-width="3" fill="#fff"/><path d="M500.76 236c0-3.3 2.7-6 6-6H654c3.3 0 6 2.7 6 6v48c0 3.3-2.7 6-6 6H506.76c-3.3 0-6-2.7-6-6z" stroke="#000" stroke-opacity="0" stroke-width="3" fill="#fff" fill-opacity="0"/><g><use xlink:href="#t" transform="matrix(1,0,0,1,505.7606928944747,235) translate(50.358024691358025 29.84722222222222)"/></g><path d="M1488 220c17.67 0 32 17.9 32 40s-14.33 40-32 40h-96c-17.67 0-32-17.9-32-40s14.33-40 32-40z" stroke="#5e5e5e" stroke-width="3" fill="#fff"/><g><use xlink:href="#u" transform="matrix(1,0,0,1,1365,225) translate(53.94444444444445 40.0625)"/></g><path d="M1320 260h20" stroke="#5e5e5e" stroke-width="2" fill="none"/><path d="M1320 261h-1.15l.18-1.33-.15-.67h1.13z" fill="#5e5e5e"/><path d="M1355.26 260l-14.26 4.64v-9.28z" stroke="#5e5e5e" stroke-width="2" fill="#5e5e5e"/><path d="M60 146c0-3.3 2.7-6 6-6h388c3.3 0 6 2.7 6 6v67.33c0 3.32-2.7 6-6 6H66c-3.3 0-6-2.68-6-6z" stroke="#000" stroke-opacity="0" stroke-width="3" fill="#fff" fill-opacity="0"/><g><use xlink:href="#v" transform="matrix(1,0,0,1,65,145) translate(64.95987654320993 40.61111111111111)"/><use xlink:href="#w" transform="matrix(1,0,0,1,65,145) translate(153.63271604938274 40.61111111111111)"/></g><g><path d="M969.68 113.16c2.34-2.34 6.14-2.34 8.48 0L1098.6 233.6c2.34 2.34 6.14 2.34 8.5 0l120.42-120.44c2.34-2.34 6.14-2.34 8.5 0l16.5 16.52c2.34 2.34 2.34 6.14 0 8.48L1132.1 258.6c-2.36 2.34-2.36 6.14 0 8.5L1252.5 387.5c2.34 2.34 2.34 6.14 0 8.5l-16.5 16.5c-2.36 2.34-6.16 2.34-8.5 0L1107.1 292.1c-2.36-2.36-6.16-2.36-8.5 0L978.16 412.5c-2.34 2.34-6.14 2.34-8.48 0l-16.52-16.5c-2.34-2.36-2.34-6.16 0-8.5L1073.6 267.1c2.34-2.36 2.34-6.16 0-8.5L953.16 138.16c-2.34-2.34-2.34-6.14 0-8.48z" stroke="#5e5e5e" stroke-width="3" fill="#c92d39"/></g><defs><path fill="#333" d="M30 0v-248h187v28H63v79h144v27H63v87h162V0H30" id="x"/><path fill="#333" d="M205 0l-28-72H64L36 0H1l101-248h38L239 0h-34zm-38-99l-47-123c-12 45-31 82-46 123h93" id="y"/><path fill="#333" d="M233-177c-1 41-23 64-60 70L243 0h-38l-65-103H63V0H30v-248c88 3 205-21 203 71zM63-129c60-2 137 13 137-47 0-61-80-42-137-45v92" id="z"/><path fill="#333" d="M30 0v-248h33v221h125V0H30" id="A"/><path fill="#333" d="M137-103V0h-34v-103L8-248h37l75 118 75-118h37" id="B"/><g id="a"><use transform="matrix(0.055555555555555546,0,0,0.055555555555555546,0,0)" xlink:href="#x"/><use transform="matrix(0.055555555555555546,0,0,0.055555555555555546,13.33333333333333,0)" xlink:href="#y"/><use transform="matrix(0.055555555555555546,0,0,0.055555555555555546,26.66666666666666,0)" xlink:href="#z"/><use transform="matrix(0.055555555555555546,0,0,0.055555555555555546,41.05555555555554,0)" xlink:href="#A"/><use transform="matrix(0.055555555555555546,0,0,0.055555555555555546,50.66666666666665,0)" xlink:href="#B"/></g><path fill="#333" d="M33 0v-248h34V0H33" id="C"/><path fill="#333" d="M137 0h-34L2-248h35l83 218 83-218h36" id="D"/><path fill="#333" d="M103-251c84 0 111 97 45 133-19 10-37 24-39 52H78c0-63 77-55 77-114 0-30-21-42-52-43-32 0-53 17-56 46l-32-2c7-45 34-72 88-72zM77 0v-35h34V0H77" id="E"/><g id="b"><use transform="matrix(0.055555555555555546,0,0,0.055555555555555546,0,0)" xlink:href="#y"/><use transform="matrix(0.055555555555555546,0,0,0.055555555555555546,13.33333333333333,0)" xlink:href="#z"/><use transform="matrix(0.055555555555555546,0,0,0.055555555555555546,27.722222222222214,0)" xlink:href="#z"/><use transform="matrix(0.055555555555555546,0,0,0.055555555555555546,42.1111111111111,0)" xlink:href="#C"/><use transform="matrix(0.055555555555555546,0,0,0.055555555555555546,47.66666666666666,0)" xlink:href="#D"/><use transform="matrix(0.055555555555555546,0,0,0.055555555555555546,59.499999999999986,0)" xlink:href="#y"/><use transform="matrix(0.055555555555555546,0,0,0.055555555555555546,72.83333333333331,0)" xlink:href="#A"/><use transform="matrix(0.055555555555555546,0,0,0.055555555555555546,83.94444444444443,0)" xlink:href="#E"/></g><path fill="#333" d="M100-194c63 0 86 42 84 106H49c0 40 14 67 53 68 26 1 43-12 49-29l28 8c-11 28-37 45-77 45C44 4 14-33 15-96c1-61 26-98 85-98zm52 81c6-60-76-77-97-28-3 7-6 17-6 28h103" id="F"/><path fill="#333" d="M141-36C126-15 110 5 73 4 37 3 15-17 15-53c-1-64 63-63 125-63 3-35-9-54-41-54-24 1-41 7-42 31l-33-3c5-37 33-52 76-52 45 0 72 20 72 64v82c-1 20 7 32 28 27v20c-31 9-61-2-59-35zM48-53c0 20 12 33 32 33 41-3 63-29 60-74-43 2-92-5-92 41" id="G"/><path fill="#333" d="M85-194c31 0 48 13 60 33l-1-100h32l1 261h-30c-2-10 0-23-3-31C134-8 116 4 85 4 32 4 16-35 15-94c0-66 23-100 70-100zm9 24c-40 0-46 34-46 75 0 40 6 74 45 74 42 0 51-32 51-76 0-42-9-74-50-73" id="H"/><g id="c"><use transform="matrix(0.055555555555555546,0,0,0.055555555555555546,0,0)" xlink:href="#z"/><use transform="matrix(0.055555555555555546,0,0,0.055555555555555546,14.388888888888886,0)" xlink:href="#F"/><use transform="matrix(0.055555555555555546,0,0,0.055555555555555546,25.499999999999993,0)" xlink:href="#G"/><use transform="matrix(0.055555555555555546,0,0,0.055555555555555546,36.6111111111111,0)" xlink:href="#H"/></g><path fill="#333" d="M185-189c-5-48-123-54-124 2 14 75 158 14 163 119 3 78-121 87-175 55-17-10-28-26-33-46l33-7c5 56 141 63 141-1 0-78-155-14-162-118-5-82 145-84 179-34 5 7 8 16 11 25" id="I"/><path fill="#333" d="M117-194c89-4 53 116 60 194h-32v-121c0-31-8-49-39-48C34-167 62-67 57 0H25l-1-190h30c1 10-1 24 2 32 11-22 29-35 61-36" id="J"/><path fill="#333" d="M135-143c-3-34-86-38-87 0 15 53 115 12 119 90S17 21 10-45l28-5c4 36 97 45 98 0-10-56-113-15-118-90-4-57 82-63 122-42 12 7 21 19 24 35" id="K"/><path fill="#333" d="M100-194c62-1 85 37 85 99 1 63-27 99-86 99S16-35 15-95c0-66 28-99 85-99zM99-20c44 1 53-31 53-75 0-43-8-75-51-75s-53 32-53 75 10 74 51 75" id="L"/><path fill="#333" d="M114-163C36-179 61-72 57 0H25l-1-190h30c1 12-1 29 2 39 6-27 23-49 58-41v29" id="M"/><g id="d"><use transform="matrix(0.055555555555555546,0,0,0.055555555555555546,0,0)" xlink:href="#I"/><use transform="matrix(0.055555555555555546,0,0,0.055555555555555546,13.33333333333333,0)" xlink:href="#F"/><use transform="matrix(0.055555555555555546,0,0,0.055555555555555546,24.44444444444444,0)" xlink:href="#J"/><use transform="matrix(0.055555555555555546,0,0,0.055555555555555546,35.55555555555555,0)" xlink:href="#K"/><use transform="matrix(0.055555555555555546,0,0,0.055555555555555546,45.55555555555555,0)" xlink:href="#L"/><use transform="matrix(0.055555555555555546,0,0,0.055555555555555546,56.66666666666666,0)" xlink:href="#M"/></g><path fill="#333" d="M30-248c118-7 216 8 213 122C240-48 200 0 122 0H30v-248zM63-27c89 8 146-16 146-99s-60-101-146-95v194" id="N"/><path fill="#333" d="M59-47c-2 24 18 29 38 22v24C64 9 27 4 27-40v-127H5v-23h24l9-43h21v43h35v23H59v120" id="O"/><g id="e"><use transform="matrix(0.055555555555555546,0,0,0.055555555555555546,0,0)" xlink:href="#N"/><use transform="matrix(0.055555555555555546,0,0,0.055555555555555546,14.388888888888886,0)" xlink:href="#G"/><use transform="matrix(0.055555555555555546,0,0,0.055555555555555546,25.499999999999993,0)" xlink:href="#O"/><use transform="matrix(0.055555555555555546,0,0,0.055555555555555546,31.055555555555543,0)" xlink:href="#G"/></g><g id="f"><use transform="matrix(0.055555555555555546,0,0,0.055555555555555546,0,0)" xlink:href="#I"/><use transform="matrix(0.055555555555555546,0,0,0.055555555555555546,13.33333333333333,0)" xlink:href="#F"/><use transform="matrix(0.055555555555555546,0,0,0.055555555555555546,24.44444444444444,0)" xlink:href="#O"/></g><path fill="#333" d="M30-248c87 1 191-15 191 75 0 78-77 80-158 76V0H30v-248zm33 125c57 0 124 11 124-50 0-59-68-47-124-48v98" id="P"/><path fill="#333" d="M24 0v-261h32V0H24" id="Q"/><g id="g"><use transform="matrix(0.055555555555555546,0,0,0.055555555555555546,0,0)" xlink:href="#P"/><use transform="matrix(0.055555555555555546,0,0,0.055555555555555546,13.33333333333333,0)" xlink:href="#Q"/><use transform="matrix(0.055555555555555546,0,0,0.055555555555555546,17.722222222222218,0)" xlink:href="#G"/><use transform="matrix(0.055555555555555546,0,0,0.055555555555555546,28.83333333333333,0)" xlink:href="#O"/><use transform="matrix(0.055555555555555546,0,0,0.055555555555555546,34.388888888888886,0)" xlink:href="#L"/><use transform="matrix(0.055555555555555546,0,0,0.055555555555555546,45.49999999999999,0)" xlink:href="#L"/><use transform="matrix(0.055555555555555546,0,0,0.055555555555555546,56.6111111111111,0)" xlink:href="#J"/></g><path fill="#333" d="M24-231v-30h32v30H24zM24 0v-190h32V0H24" id="R"/><path fill="#333" d="M9 0v-24l116-142H16v-24h144v24L44-24h123V0H9" id="S"/><g id="h"><use transform="matrix(0.055555555555555546,0,0,0.055555555555555546,0,0)" xlink:href="#I"/><use transform="matrix(0.055555555555555546,0,0,0.055555555555555546,13.33333333333333,0)" xlink:href="#R"/><use transform="matrix(0.055555555555555546,0,0,0.055555555555555546,17.722222222222218,0)" xlink:href="#S"/><use transform="matrix(0.055555555555555546,0,0,0.055555555555555546,27.722222222222214,0)" xlink:href="#F"/></g><path fill="#333" d="M234-2c-28 10-62 0-77-18C117 19 8 12 13-65c3-43 29-61 60-76-25-40-17-114 47-108 35 3 59 15 59 50 0 44-40 53-71 69 14 26 32 50 51 72 14-21 24-43 30-72l26 8c-9 33-21 57-38 82 13 13 33 22 57 15v23zM97-151c25-10 52-18 56-48-1-18-13-29-33-29-42 0-39 50-23 77zM42-66c-3 51 71 58 98 28-20-24-41-51-56-80-23 10-40 24-42 52" id="T"/><use transform="matrix(0.055555555555555546,0,0,0.055555555555555546,0,0)" xlink:href="#T" id="i"/><path fill="#333" d="M179-190L93 31C79 59 56 82 12 73V49c39 6 53-20 64-50L1-190h34L92-34l54-156h33" id="U"/><path fill="#333" d="M96-169c-40 0-48 33-48 73s9 75 48 75c24 0 41-14 43-38l32 2c-6 37-31 61-74 61-59 0-76-41-82-99-10-93 101-131 147-64 4 7 5 14 7 22l-32 3c-4-21-16-35-41-35" id="V"/><path fill="#333" d="M33 0v-38h34V0H33" id="W"/><g id="j"><use transform="matrix(0.055555555555555546,0,0,0.055555555555555546,0,0)" xlink:href="#K"/><use transform="matrix(0.055555555555555546,0,0,0.055555555555555546,9.999999999999998,0)" xlink:href="#U"/><use transform="matrix(0.055555555555555546,0,0,0.055555555555555546,19.999999999999996,0)" xlink:href="#J"/><use transform="matrix(0.055555555555555546,0,0,0.055555555555555546,31.111111111111107,0)" xlink:href="#V"/><use transform="matrix(0.055555555555555546,0,0,0.055555555555555546,41.11111111111111,0)" xlink:href="#W"/></g><g id="k"><use transform="matrix(0.055555555555555546,0,0,0.055555555555555546,0,0)" xlink:href="#G"/><use transform="matrix(0.055555555555555546,0,0,0.055555555555555546,11.111111111111109,0)" xlink:href="#V"/><use transform="matrix(0.055555555555555546,0,0,0.055555555555555546,21.111111111111107,0)" xlink:href="#V"/></g><path fill="#333" d="M127-220V0H93v-220H8v-28h204v28h-85" id="X"/><g id="l"><use transform="matrix(0.055555555555555546,0,0,0.055555555555555546,0,0)" xlink:href="#I"/><use transform="matrix(0.055555555555555546,0,0,0.055555555555555546,13.33333333333333,0)" xlink:href="#X"/><use transform="matrix(0.055555555555555546,0,0,0.055555555555555546,23.999999999999993,0)" xlink:href="#y"/><use transform="matrix(0.055555555555555546,0,0,0.055555555555555546,37.33333333333332,0)" xlink:href="#z"/><use transform="matrix(0.055555555555555546,0,0,0.055555555555555546,51.33333333333332,0)" xlink:href="#X"/></g><path fill="#333" d="M146-102V0H94v-102L6-248h54l60 105 60-105h54" id="Y"/><path fill="#333" d="M24 0v-248h195v40H76v63h132v40H76v65h150V0H24" id="Z"/><path fill="#333" d="M169-182c-1-43-94-46-97-3 18 66 151 10 154 114 3 95-165 93-204 36-6-8-10-19-12-30l50-8c3 46 112 56 116 5-17-69-150-10-154-114-4-87 153-88 188-35 5 8 8 18 10 28" id="aa"/><g id="n"><use transform="matrix(0.04938271604938272,0,0,0.04938271604938272,0,0)" xlink:href="#Y"/><use transform="matrix(0.04938271604938272,0,0,0.04938271604938272,11.851851851851853,0)" xlink:href="#Z"/><use transform="matrix(0.04938271604938272,0,0,0.04938271604938272,23.703703703703706,0)" xlink:href="#aa"/></g><path fill="#333" d="M115-194c55 1 70 41 70 98S169 2 115 4C84 4 66-9 55-30l1 105H24l-1-265h31l2 30c10-21 28-34 59-34zm-8 174c40 0 45-34 45-75s-6-73-45-74c-42 0-51 32-51 76 0 43 10 73 51 73" id="ab"/><g id="o"><use transform="matrix(0.055555555555555546,0,0,0.055555555555555546,0,0)" xlink:href="#I"/><use transform="matrix(0.055555555555555546,0,0,0.055555555555555546,13.33333333333333,0)" xlink:href="#O"/><use transform="matrix(0.055555555555555546,0,0,0.055555555555555546,18.888888888888886,0)" xlink:href="#L"/><use transform="matrix(0.055555555555555546,0,0,0.055555555555555546,29.999999999999993,0)" xlink:href="#ab"/></g><path fill="#333" d="M266 0h-40l-56-210L115 0H75L2-248h35L96-30l15-64 43-154h32l59 218 59-218h35" id="ac"/><g id="p"><use transform="matrix(0.055555555555555546,0,0,0.055555555555555546,0,0)" xlink:href="#ac"/><use transform="matrix(0.055555555555555546,0,0,0.055555555555555546,18.111111111111107,0)" xlink:href="#G"/><use transform="matrix(0.055555555555555546,0,0,0.055555555555555546,29.222222222222218,0)" xlink:href="#R"/><use transform="matrix(0.055555555555555546,0,0,0.055555555555555546,33.6111111111111,0)" xlink:href="#O"/></g><path fill="#333" d="M175 0L67-191c6 58 2 128 3 191H24v-248h59L193-55c-6-58-2-129-3-193h46V0h-61" id="ad"/><path fill="#333" d="M140-251c80 0 125 45 125 126S219 4 139 4C58 4 15-44 15-125s44-126 125-126zm-1 214c52 0 73-35 73-88 0-50-21-86-72-86-52 0-73 35-73 86s22 88 72 88" id="ae"/><g id="q"><use transform="matrix(0.04938271604938272,0,0,0.04938271604938272,0,0)" xlink:href="#ad"/><use transform="matrix(0.04938271604938272,0,0,0.04938271604938272,12.790123456790125,0)" xlink:href="#ae"/></g><g id="r"><use transform="matrix(0.055555555555555546,0,0,0.055555555555555546,0,0)" xlink:href="#P"/><use transform="matrix(0.055555555555555546,0,0,0.055555555555555546,11.83333333333333,0)" xlink:href="#y"/><use transform="matrix(0.055555555555555546,0,0,0.055555555555555546,25.16666666666666,0)" xlink:href="#I"/><use transform="matrix(0.055555555555555546,0,0,0.055555555555555546,38.49999999999999,0)" xlink:href="#I"/></g><path fill="#333" d="M197 0v-115H63V0H30v-248h33v105h134v-105h34V0h-34" id="af"/><path fill="#333" d="M140-251c81 0 123 46 123 126C263-46 219 4 140 4 59 4 17-45 17-125s42-126 123-126zm0 227c63 0 89-41 89-101s-29-99-89-99c-61 0-89 39-89 99S79-25 140-24" id="ag"/><path fill="#333" d="M232-93c-1 65-40 97-104 97C67 4 28-28 28-90v-158h33c8 89-33 224 67 224 102 0 64-133 71-224h33v155" id="ah"/><path fill="#333" d="M143 4C61 4 22-44 18-125c-5-107 100-154 193-111 17 8 29 25 37 43l-32 9c-13-25-37-40-76-40-61 0-88 39-88 99 0 61 29 100 91 101 35 0 62-11 79-27v-45h-74v-28h105v86C228-13 192 4 143 4" id="ai"/><g id="s"><use transform="matrix(0.055555555555555546,0,0,0.055555555555555546,0,0)" xlink:href="#X"/><use transform="matrix(0.055555555555555546,0,0,0.055555555555555546,12.166666666666664,0)" xlink:href="#af"/><use transform="matrix(0.055555555555555546,0,0,0.055555555555555546,26.55555555555555,0)" xlink:href="#z"/><use transform="matrix(0.055555555555555546,0,0,0.055555555555555546,40.944444444444436,0)" xlink:href="#ag"/><use transform="matrix(0.055555555555555546,0,0,0.055555555555555546,56.499999999999986,0)" xlink:href="#ah"/><use transform="matrix(0.055555555555555546,0,0,0.055555555555555546,70.88888888888887,0)" xlink:href="#ai"/><use transform="matrix(0.055555555555555546,0,0,0.055555555555555546,86.44444444444443,0)" xlink:href="#af"/></g><path fill="#333" d="M190 0L58-211 59 0H30v-248h39L202-35l-2-213h31V0h-41" id="aj"/><path fill="#333" d="M212-179c-10-28-35-45-73-45-59 0-87 40-87 99 0 60 29 101 89 101 43 0 62-24 78-52l27 14C228-24 195 4 139 4 59 4 22-46 18-125c-6-104 99-153 187-111 19 9 31 26 39 46" id="ak"/><g id="t"><use transform="matrix(0.049382716049382706,0,0,0.049382716049382706,0,0)" xlink:href="#I"/><use transform="matrix(0.049382716049382706,0,0,0.049382716049382706,11.85185185185185,0)" xlink:href="#B"/><use transform="matrix(0.049382716049382706,0,0,0.049382716049382706,23.7037037037037,0)" xlink:href="#aj"/><use transform="matrix(0.049382716049382706,0,0,0.049382716049382706,36.49382716049382,0)" xlink:href="#ak"/></g><g id="u"><use transform="matrix(0.055555555555555546,0,0,0.055555555555555546,0,0)" xlink:href="#x"/><use transform="matrix(0.055555555555555546,0,0,0.055555555555555546,13.33333333333333,0)" xlink:href="#aj"/><use transform="matrix(0.055555555555555546,0,0,0.055555555555555546,27.722222222222214,0)" xlink:href="#N"/></g><path fill="#333" d="M63-220v92h138v28H63V0H30v-248h175v28H63" id="al"/><g id="v"><use transform="matrix(0.0802469135802469,0,0,0.0802469135802469,0,0)" xlink:href="#al"/><use transform="matrix(0.0802469135802469,0,0,0.0802469135802469,17.57407407407407,0)" xlink:href="#C"/><use transform="matrix(0.0802469135802469,0,0,0.0802469135802469,25.59876543209876,0)" xlink:href="#aj"/><use transform="matrix(0.0802469135802469,0,0,0.0802469135802469,46.38271604938271,0)" xlink:href="#y"/><use transform="matrix(0.0802469135802469,0,0,0.0802469135802469,65.64197530864196,0)" xlink:href="#A"/></g><path fill="#333" d="M240 0l2-218c-23 76-54 145-80 218h-23L58-218 59 0H30v-248h44l77 211c21-75 51-140 76-211h43V0h-30" id="am"/><g id="w"><use transform="matrix(0.0802469135802469,0,0,0.0802469135802469,0,0)" xlink:href="#y"/><use transform="matrix(0.0802469135802469,0,0,0.0802469135802469,19.259259259259256,0)" xlink:href="#A"/><use transform="matrix(0.0802469135802469,0,0,0.0802469135802469,35.30864197530863,0)" xlink:href="#ai"/><use transform="matrix(0.0802469135802469,0,0,0.0802469135802469,57.77777777777776,0)" xlink:href="#ag"/><use transform="matrix(0.0802469135802469,0,0,0.0802469135802469,80.24691358024688,0)" xlink:href="#z"/><use transform="matrix(0.0802469135802469,0,0,0.0802469135802469,101.03086419753082,0)" xlink:href="#C"/><use transform="matrix(0.0802469135802469,0,0,0.0802469135802469,109.05555555555551,0)" xlink:href="#X"/><use transform="matrix(0.0802469135802469,0,0,0.0802469135802469,126.62962962962958,0)" xlink:href="#af"/><use transform="matrix(0.0802469135802469,0,0,0.0802469135802469,147.41358024691354,0)" xlink:href="#am"/></g></defs></g></svg>